<svg width="24" height="24" viewBox="0 0 24 24" fill="none" xmlns="http://www.w3.org/2000/svg">
<path fill-rule="evenodd" clip-rule="evenodd" d="M12 3C7.02944 3 3 7.02944 3 12C3 14.3862 3.92862 16.5555 5.44419 18.1662C6.10909 16.8795 7.45183 16 9 16H15C16.5482 16 17.8909 16.8795 18.5558 18.1662C20.0714 16.5555 21 14.3862 21 12C21 7.02944 16.9706 3 12 3ZM16.9426 19.5225C16.7286 18.6485 15.94 18 15 18H9C8.05999 18 7.27144 18.6485 7.05735 19.5225C8.47598 20.4565 10.1745 21 12 21C13.8255 21 15.524 20.4565 16.9426 19.5225ZM1 12C1 5.92487 5.92487 1 12 1C18.0751 1 23 5.92487 23 12C23 18.0751 18.0751 23 12 23C5.92487 23 1 18.0751 1 12ZM12 7C10.3431 7 9 8.34315 9 10C9 11.6569 10.3431 13 12 13C13.6569 13 15 11.6569 15 10C15 8.34315 13.6569 7 12 7ZM7 10C7 7.23858 9.23858 5 12 5C14.7614 5 17 7.23858 17 10C17 12.7614 14.7614 15 12 15C9.23858 15 7 12.7614 7 10Z" fill="black"/>
</svg>
